<svg version="1" xmlns="http://www.w3.org/2000/svg" width="682.667" height="682.667" viewBox="0 0 512 512"><path d="M192.4 29.5c-10.8 2.4-20.5 11-24.5 21.5-1.6 4.2-2.1 7.8-2.1 16 0 5.8 0 11.2.1 12 .1 1.3 2.2 1.6 14 1.5 7.7 0 14.3-.3 14.6-.7.4-.3.7-4.4.7-9 0-5.5.4-9.1 1.4-10.6L198 58h57.9c53.8 0 57.9.1 59.4 1.7 1.2 1.4 1.5 3.9 1.5 11.3l-.1 9.5h14.6c14.1.1 14.7 0 14.8-2 .5-9.1-.3-22-1.7-26.2-3.3-9.7-9.8-16.7-19.4-21.1l-5.5-2.6-61-.1c-42.7-.1-62.6.2-66.1 1zm-166 69.4c-9.4 2.3-18.7 10.2-23.5 19.8l-2.4 4.8L.2 172c-.2 33.6 0 49.9.8 53 1.9 7.5 8.7 20.1 14.9 27.6 10 12 24.7 21.5 41.3 26.6 7.2 2.2 8.1 2.2 83.8 2.6l76.5.3.1-15.9c.2-17.4 1-20.7 7.2-26.5 4.9-4.7 9.5-5.4 33.2-5.2 17.6.1 22 .5 24.5 1.8 4.5 2.4 7.2 5.3 9.6 10 2 3.7 2.2 5.9 2.2 20l.1 15.7h74.1c70.1-.1 74.4-.2 82.5-2.1 20.3-4.8 36.6-15.5 48.6-31.9 4.6-6.3 9.8-16.9 11.4-23.2.7-2.9 1-20.4.8-52.8l-.3-48.5-3-5.8c-3.3-6.7-10.2-13.3-17.2-16.8l-4.8-2.4-228.5-.2c-125.7 0-229.9.2-231.6.6z"/><path d="M238.4 252l-2.9.5-.3 37.4c-.1 25.4.1 37.8.8 38.7 1.3 1.5 37.7 1.7 39.8.1.9-.7 1.2-9.6 1.2-38.4 0-32.5-.2-37.4-1.5-37.9-1.9-.8-33.1-1.1-37.1-.4z"/><path d="M.2 359.2l.3 98.3 2.6 5.5c4.5 9.2 12.1 16 21.4 19.1 3.3 1.1 45 1.3 231 1.4 218 0 227.2-.1 232.5-1.8 9.6-3.3 16.1-9.1 20.7-18.5l2.8-5.7.3-98.3.3-98.2-4.3 4.7c-16.8 18.4-39.2 30.2-62.8 33-3 .3-37.9.7-77.5.8-39.6.1-72.3.3-72.6.4-.3 0-.5 6.7-.5 14.8-.1 16.6-.9 20.5-5.7 25.6-5.7 6.2-8.3 6.7-32.7 6.7-23 0-25.4-.4-31.3-5-5.4-4.3-6.9-9.8-7.2-26.5-.1-8.2-.3-15.2-.3-15.5-.1-.3-32-.6-70.9-.6-39 0-73.9-.3-77.8-.7-24.1-2.2-47.4-14.2-64.3-33L0 261l.2 98.2z"/></svg>