<svg xmlns="http://www.w3.org/2000/svg" width="942" height="645"><linearGradient id="a" x1="100%" y1="100%" x2="100%" y2="0"><stop offset="7%" stop-color="#ff8f5a" class="stop-1"/><stop offset="92%" stop-color="#ff2f96" class="stop-2"/></linearGradient><path fill-rule="evenodd" fill="url(#a)" d="M406.819 43.771C513.505 2.11 614.187 1.981 698.362 33.255c84.392 31.02 152.279 93.443 198.39 171.019 44.247 78.347 44.2 162.5 8.063 230.576-36.637 69.09-97.616 121.179-180.712 158.354-44.008 18.718-90.266 31.542-149.072 39.413-58.031 7.756-128.611 10.561-203.39 6.56C223.243 631.48 56.927 595.346 21.853 513.84c-19.876-40.472-7.4-86.865 17.312-133.552 25.117-46.756 62.47-93.806 101.688-137.165 39.624-43.428 81.113-83.165 123.827-116.864 43.12-33.768 87.464-61.5 142.139-82.489z"/></svg>