<svg class="header__svg" xmlns="http://www.w3.org/2000/svg" width="942" height="780"><linearGradient id="a" x1="100%" y1="100%" x2="100%" y2="0"><stop offset="7%" stop-color="#ff8f5a" class="stop-1"/><stop offset="92%" stop-color="#ff2f96" class="stop-2"/></linearGradient><path fill-rule="evenodd" fill="url(#a)" d="M406.52 52.407C513.261 1.95 613.994 1.796 698.212 39.67c84.435 37.567 152.356 113.165 198.491 207.114 44.27 94.884 44.223 196.799 8.068 279.242-36.656 83.673-97.666 146.755-180.805 191.777-44.03 22.669-90.312 38.198-149.148 47.731-58.06 9.394-128.677 12.79-203.493 7.945-148.474-9.322-314.876-53.082-349.967-151.79-19.887-49.013-7.404-105.198 17.32-161.74 25.131-56.624 62.503-113.604 101.741-166.115 39.644-52.593 81.154-100.717 123.89-141.53 43.141-40.895 87.508-74.478 142.211-99.898z"/></svg>